<svg id="Layer_1" data-name="Layer 1" xmlns="http://www.w3.org/2000/svg" width="3977.96" height="845.96" preserveAspectRatio="xMinYMin meet" viewBox="0 0 3977.96 845.96">
  <defs>
    <style>
      .cls-1 {
        fill: #231f20;
      }
    </style>
  </defs>
  <g>
    <path class="cls-1" d="M665.81,194.94a322.5,322.5,0,1,0-228,550.54,322.5,322.5,0,0,0,228-550.54ZM480.61,697.17c-5.31-11.7-12.93-32.69-10.63-53,1.4.87,3.06,2,4.53,3,10.38,7.12,27.72,19,55.22,19h.2l9.42,0L534.7,658c-2.25-4-3.84-7.1-5.24-9.86-3.92-7.72-6.25-11.81-12.91-16.92l3.37-.57c31-5.25,77.87-13.19,113.87-64.52l5.92-8.44-10.31-.21A305.08,305.08,0,0,0,526,572.76c3.25-2.55,6.68-5.19,10.23-7.93,40.17-30.92,95.18-73.28,91.47-135.27l-.33-5.49-5.49.33c-34.37,2.08-67.15,17.62-97.44,46.17-17,16-31,33.9-42.89,51.08a357.46,357.46,0,0,0-.48-79.53c-5.94-49.5-22.4-94.5-48.92-133.76l-4.39-6.49-4.61,6.33c-29.36,40.27-43.4,86.21-41.72,136.54,1,29.87,7.22,55.78,13.14,75.44l-1.91-2.84c-22.15-33-55.62-83-126.19-88.31l-6.49-.49.6,6.48c3.15,34.31,17,64.29,42.5,91.65,20.74,22.3,44.82,38.19,64.45,51-34.43-10.29-60.91-10.92-101.91-7.67l-10.31.82,6.44,8.09c29.25,36.73,70,43.57,113.12,50.8,5.67,1,11.48,1.93,17.28,3l-.25.25c-5.83,5.71-14.64,14.36-21.5,27.53l-4.16,8,9,0h.27c21.3,0,36.29-10.6,45.27-16.94l1.41-1c2.25,18.27,2.32,37.63,2,49.6-146.77-7.06-264-128.68-264-277.17,0-153,124.48-277.5,277.5-277.5S715.27,270,715.27,423C715.27,561.42,613.35,676.51,480.61,697.17Z"/>
    <g>
      <path class="cls-1" d="M1116.78,503.92c-20.64,58.62-70.35,92.39-128,92.39-74.57,0-133.19-60-133.19-134.13,0-78.32,56.74-139.29,132.72-139.29,59.09,0,113,37.05,128.51,93.33h-53.94c-14.54-30.49-38-48.78-73.16-48.78-51.12,0-85.36,38.93-85.36,91.92,0,51.59,35.18,92.4,84.42,92.4,33.3,0,60-17.83,73.63-47.84Z"/>
      <path class="cls-1" d="M1376.6,589.74V549.41h-.94c-18.29,31-51.12,46.9-88.17,46.9-76,0-137.88-57.22-137.88-132.26,0-83,59.56-141.16,136-141.16,38,0,69.88,14.07,90,43.61h.94V329.92h48.78V589.74Zm.94-129.44c0-50.65-36.58-92.86-90.52-92.86-48.77,0-88.64,41.74-88.64,92.86,0,48.78,39.87,91.46,88.64,91.46C1337.67,551.76,1377.54,509.55,1377.54,460.3Z"/>
      <path class="cls-1" d="M1669.72,589.74V448.11c0-54.87-21.57-80.67-64.72-80.67-42.68,0-68.47,31.42-68.47,80.2v142.1h-48.78V329.92h45.5v27.67h.93c19.23-24.85,46-34.7,76-34.7,62.38,0,108.34,39.39,108.34,111.15v155.7Z"/>
      <path class="cls-1" d="M1962.38,589.74V448.11c0-54.87-21.58-80.67-64.73-80.67-42.67,0-68.47,31.42-68.47,80.2v142.1h-48.77V329.92h45.49v27.67h.94c19.23-24.85,46-34.7,76-34.7,62.38,0,108.34,39.39,108.34,111.15v155.7Z"/>
      <path class="cls-1" d="M2286.92,589.74V549.41H2286c-18.29,31-51.12,46.9-88.17,46.9-76,0-137.88-57.22-137.88-132.26,0-83,59.56-141.16,136-141.16,38,0,69.88,14.07,90.05,43.61h.94V329.92h48.77V589.74Zm.94-129.44c0-50.65-36.58-92.86-90.52-92.86-48.77,0-88.64,41.74-88.64,92.86,0,48.78,39.87,91.46,88.64,91.46C2248,551.76,2287.86,509.55,2287.86,460.3Z"/>
      <path class="cls-1" d="M2500.78,398.86c-2.34-18.76-13.13-31.42-33.3-31.42-18.76,0-30.48,12.66-30.48,27.67,0,22,22.51,28.61,48.3,36.58,36.59,11.26,70.35,33.3,70.35,81.61,0,50.18-36.58,83-87.23,83-46.9,0-91.92-31.89-91.92-91.92h48.77c2.35,31.42,18.29,47.37,44.09,47.37,22.51,0,37.52-14.54,37.52-35.65,0-17.82-13.6-29.54-44.09-39.39-63.78-20.17-74.57-47.84-74.57-77.39,0-46,38.93-76.44,81.61-76.44,43.15,0,78.32,30,79.73,76Z"/>
      <path class="cls-1" d="M2597.4,676.51V329.92H2642v39.87h.94c22-31.43,55.34-46.9,92.39-46.9,77.38,0,134.6,60,134.6,140.23,0,73.16-56.75,133.19-131.32,133.19-39.39,0-74.57-15.95-91.45-44.09h-.94V676.51ZM2821.11,460.3c0-47.37-37.52-92.86-89.58-92.86-48.78,0-86.3,43.62-86.3,91.92,0,50.65,37.52,92.4,88.17,92.4C2783.59,551.76,2821.11,510,2821.11,460.3Z"/>
      <path class="cls-1" d="M3132.52,589.74V549.41h-.94c-18.29,31-51.12,46.9-88.17,46.9-76,0-137.89-57.22-137.89-132.26,0-83,59.57-141.16,136-141.16,38,0,69.88,14.07,90,43.61h.94V329.92h48.77V589.74Zm.94-129.44c0-50.65-36.59-92.86-90.52-92.86-48.78,0-88.64,41.74-88.64,92.86,0,48.78,39.86,91.46,88.64,91.46C3093.59,551.76,3133.46,509.55,3133.46,460.3Z"/>
      <path class="cls-1" d="M3491.77,503.92c-20.64,58.62-70.35,92.39-128,92.39-74.57,0-133.19-60-133.19-134.13,0-78.32,56.75-139.29,132.72-139.29,59.1,0,113,37.05,128.51,93.33h-53.94c-14.54-30.49-38-48.78-73.16-48.78-51.12,0-85.36,38.93-85.36,91.92,0,51.59,35.18,92.4,84.42,92.4,33.3,0,60-17.83,73.63-47.84Z"/>
      <path class="cls-1" d="M3573.84,480.94c11.26,43.14,45.5,70.82,85.36,70.82,30.49,0,59.09-16,74.1-43.62h48.78c-20.17,53.46-68.94,88.17-124.75,88.17-73.17,0-132.26-64.72-132.26-134.13,0-82.08,61.91-139.29,130.85-139.29,76.44,0,134.6,59.09,134.6,133.66,0,8,0,15.48-1.41,24.39Zm167.9-37.52c-3.75-44.09-42.67-76-84.41-76-39.87,0-79.73,31.42-83.49,76Z"/>
    </g>
  </g>
</svg>
