<svg xmlns="http://www.w3.org/2000/svg" width="272.06" height="376.08" viewBox="0 0 272.06 376.08"><path d="M112.51,0H271.56A10,10,0,0,1,272,2.17q0,65.1,0,130.19a2.75,2.75,0,0,1-.44,1.55c-2.07,2.85-4.13,5.7-6.32,8.45-4.87,6.14-13.86,8-20.28,3.49-14-9.74-27.63-20-39.11-32.7a18.06,18.06,0,0,1-3.8-8.81c-1-6.26,2.15-11.52,5.26-16.66,3.61-6,7.76-11.7,10.74-18,5.49-11.54-.85-23.82-13.36-26.71-9-2.07-15.63,2.35-21.36,8.37-11.64,12.24-18.28,27.34-23.8,43a15.74,15.74,0,0,0-1,7c1.07,8.28,5.5,15.19,10,22,13.23,19.94,29.32,37.53,45.7,54.86a32.67,32.67,0,0,1,5,38.52c-2.63,4.81-5.18,9.66-8,14.36-13,21.84-25.56,44-39.32,65.32-9.47,14.71-24.2,21.58-41.7,20.92-19.41-.73-38.79-2.14-58.17-3.5-23.63-1.64-37.06-12.47-44.28-35.05q-12.16-38.09-24.51-76.1a28.17,28.17,0,0,1,2.6-24c6.31-10.82,12.41-21.78,18.85-32.52a115.93,115.93,0,0,1,10.39-15c4.22-5,9.2-4.82,13.8-.12,2.48,2.52,4.43,5.56,6.81,8.19C69.25,154,82.9,168.76,96.17,183.82c1.92,2.18,3.45,6.09,2.91,8.75A44.82,44.82,0,0,1,93.37,206c-3.32,5.59-7.68,10.55-11,16.12C76.7,231.55,77.81,239,85.42,247c7.31,7.63,17.6,7.76,23.62-.74,10.56-14.92,20.55-30.27,30.43-45.67,5.21-8.12,4.37-16.33-1.69-23.92-1.3-1.63-2.5-3.33-3.87-4.9q-27.12-31-54.27-62a38.7,38.7,0,0,1-4.38-45.55c9.66-16.53,19.44-33,29.1-49.52C107.18,9.82,109.8,4.88,112.51,0Z"/><path d="M113,376.08c3.29-5.32,6.21-10.92,10-15.91,4.86-6.48,12.3-8.21,19.91-8.71,26.5-1.73,53-4,79.52-4.7,21.48-.59,37.62,9.82,48.37,28.44a5.52,5.52,0,0,1,.34.88Z"/><path d="M0,.24C.25.46.59.63.73.91,8.85,16.09,17.45,31,24.94,46.53c9.11,18.85,8.57,38.12-1.69,56.37C18.51,111.33,11.82,118.66,6,126.49c-1.67,2.25-3.34,4.49-5,6.71a4.51,4.51,0,0,1-1,.72Z"/></svg>