<svg xmlns="http://www.w3.org/2000/svg" width="271.08" height="347.04" viewBox="0 0 271.08 347.04"><path d="M271.08,31.12v132c-2.21,2.93-4.39,5.88-6.63,8.78-5.07,6.57-14.56,8.44-21.1,3.38C231.57,166.13,220,156.73,208.72,147a26.22,26.22,0,0,1-7.28-10.77c-2.37-6.82,1.25-12.82,4.69-18.53,3.61-6,7.76-11.7,10.78-18,5.57-11.55-.43-23.69-12.9-26.85-9.07-2.3-15.9,2.13-21.7,8.29C170,94.28,163,110.4,157.55,127.24a7.1,7.1,0,0,0,0,4.6c3.16,7.16,5.84,14.67,10,21.19,12.92,20.1,29.19,37.51,45.5,54.85a32.47,32.47,0,0,1,9.1,25.63c-.48,6.69-3.47,12.4-6.78,18-14.72,24.85-29,50-44.39,74.42-9.25,14.65-23.88,21.68-41.25,21.07-20.73-.72-41.44-2.12-62.12-3.71C48,341.78,33.57,329.77,27.56,311Q15,271.77,2.31,232.61A28.44,28.44,0,0,1,4.9,208.3c6.31-10.77,12.37-21.69,18.8-32.39a114.11,114.11,0,0,1,10.38-15c4.22-5,9.2-4.84,13.8-.15,2.54,2.58,4.53,5.68,7,8.37C68.37,184,82,198.88,95.46,213.86a12.07,12.07,0,0,1,2.61,5.53c1.11,5.67-1.63,10.36-4.61,14.81-4,6-8.46,11.57-12.17,17.67-5.69,9.37-4.53,17,3.12,24.89,7.34,7.59,17.51,7.7,23.53-.8,10.57-14.92,20.53-30.28,30.38-45.7a24.47,24.47,0,0,0,3.3-11c.52-6.57-3.51-11.59-7.53-16.22-18.42-21.23-37-42.33-55.47-63.51-7.58-8.68-11.19-18.88-9.39-30.26a50.93,50.93,0,0,1,5.91-16.75C89,68.07,103.33,43.86,117.37,19.48,122.52,10.55,130,5.56,140.28,5c7.18-.42,14.39-.29,21.55-.79,19-1.3,37.93-3.33,56.93-4.1C242.62-.91,260,10.05,271.08,31.12Z"/><path d="M0,31.84a3.56,3.56,0,0,1,.63.66c7.71,14.4,15.83,28.61,23,43.28,9.28,19,8.92,38.37-1.4,56.81-4.71,8.41-11.37,15.72-17.17,23.5C3.42,158.3,1.69,160.43,0,162.6Z"/></svg>