<svg xmlns="http://www.w3.org/2000/svg" width="300.6" height="347.35" viewBox="0 0 300.6 347.35"><path d="M101.15,47.14c22.42-36.8,16-43.56,59.49-42.68,0-.32,30.77-2.53,56.72-4.33a54.48,54.48,0,0,1,51.79,28.63l24.09,45a62.17,62.17,0,0,1-.66,59.89L264,171.83a15.68,15.68,0,0,1-21.73,3.33c-11.93-8.59-29.35-21.92-38.86-32.79a1.09,1.09,0,0,1-.13-.17c-10.72-16,9.55-29.59,14.53-45.87a17.94,17.94,0,0,0-6.61-19.41c-26.74-20.16-48.79,32.53-54.14,49.63-4.81,15.34,32.84,57.84,55.64,81.73a32.62,32.62,0,0,1,5,38.24c-13.37,24.27-35,62.75-47.38,80.13a49.21,49.21,0,0,1-43.37,20.59c-20.47-1.36-46.91-3.06-58.88-3.61A44.92,44.92,0,0,1,27.3,312.36c-8.55-26.92-20.56-64.52-25.85-80.21a27.76,27.76,0,0,1,2.46-23.06L23,177l-.43-.23c8.46-14.14,16.27-29.47,29.27-10.32l.08.1c13.51,16.85,29.38,31.85,43.51,48.1a1,1,0,0,1,.15.21C106.77,232,69,250.71,78.7,269.59c4,8.37,11.7,15.29,22.84,12.09,5.13-1.48,22.53-28.59,31.56-43,11.72-18.56,11-23.77-4.19-40.89-13.64-15.37-35.61-40.52-51.19-58.38a38.91,38.91,0,0,1-4.31-45.11C82.36,78.92,93.66,59.58,101.15,47.14Z"/></svg>