<svg xmlns="http://www.w3.org/2000/svg" width="860.88" height="994.75" viewBox="0 0 860.88 994.75"><path d="M289.69,135C353.9,29.6,335.42,10.25,460,12.76,460,11.86,548.18,5.54,622.48.38a156,156,0,0,1,148.32,82l69,128.8a178,178,0,0,1-1.88,171.5L756.09,492.1a44.9,44.9,0,0,1-62.23,9.53C659.7,477,609.79,438.87,582.57,407.74a5.72,5.72,0,0,1-.37-.49c-30.72-45.93,27.33-84.75,41.6-131.38,6.26-20.47-1.83-42.7-18.92-55.58-76.59-57.73-139.73,93.15-155.07,142.12-13.76,43.94,94.08,165.65,159.35,234.08A93.37,93.37,0,0,1,623.4,706c-38.27,69.51-100.31,179.7-135.69,229.46a140.9,140.9,0,0,1-124.2,59c-58.62-3.89-134.36-8.76-168.63-10.33A128.63,128.63,0,0,1,78.19,894.55c-24.5-77.09-58.89-184.77-74-229.7a79.47,79.47,0,0,1,7-66q27.41-46,54.68-91.87l-1.26-.67c24.23-40.49,46.62-84.39,83.85-29.57l.22.3c38.7,48.27,84.14,91.22,124.61,137.76a4.92,4.92,0,0,1,.44.58c32,49.12-76.23,102.67-48.36,156.72,11.44,24,33.53,43.8,65.43,34.62,14.68-4.22,64.52-81.86,90.38-123.11,33.57-53.15,31.49-68.06-12-117.1-39.06-44-102-116-146.59-167.2A111.38,111.38,0,0,1,210.24,270.1C235.87,226,268.23,170.64,289.69,135Z"/></svg>