<svg xmlns="http://www.w3.org/2000/svg" width="154.76" height="242.73" viewBox="0 0 154.76 242.73"><path d="M21,57.72c4.9-27-.48-29.51,25.55-38.93-.09-.18,17.69-8.53,32.68-15.53a34.62,34.62,0,0,1,37.28,5.15L141,29.6a39.52,39.52,0,0,1,13.3,35.69L146.11,94.5A10,10,0,0,1,134,101.44c-9-2.37-22.43-6.29-30.56-10.57l-.12-.08c-10-7.06-1.1-19.74-1.86-30.54a11.41,11.41,0,0,0-8.36-10C72.6,44.39,71.56,80.7,72.29,92.07c.65,10.2,32.72,26.82,51.71,35.79a20.75,20.75,0,0,1,11.69,21.56c-2.39,17.46-6.45,45.25-9.81,58.39a31.27,31.27,0,0,1-21,22.13c-12.46,3.88-28.55,8.91-35.78,11.32A28.54,28.54,0,0,1,37.74,232c-11.23-14-26.95-33.59-33.68-41.69A17.65,17.65,0,0,1,.25,176.07q2-11.73,4-23.4l-.31,0c1.79-10.33,2.93-21.21,15-12.82l.06,0C30.9,146.77,43.74,152,55.85,158.46l.13.08c10.56,7.62-7.6,27.36,2.49,36.34,4.28,4.05,10.44,6.4,16.32,2,2.71-2,6.84-22.11,8.91-32.73,2.71-13.69,1.09-16.61-11.84-23.3-11.61-6-30.39-15.91-43.72-23A24.73,24.73,0,0,1,15.27,92.06C17.06,80.88,19.35,66.82,21,57.72Z"/></svg>